<?xml version="1.0" encoding="UTF-8"?><svg id="a" xmlns="http://www.w3.org/2000/svg" xmlns:xlink="http://www.w3.org/1999/xlink" viewBox="0 0 1736 449.7006"><defs><style>.f,.g{fill:none;}.h{fill:url(#e);}.i{fill:url(#c);}.g{stroke:#22275a;stroke-miterlimit:10;stroke-width:.272px;}.j{fill:#22275a;}.k{fill:#fff;}.l{clip-path:url(#d);}.m{clip-path:url(#b);}</style><clipPath id="b"><polygon class="f" points="0 213.7104 0 449.7006 714.497 449.7006 793.3146 213.7104 0 213.7104"/></clipPath><linearGradient id="c" x1="644.0789" y1="778.6607" x2="656.5819" y2="778.6607" gradientTransform="translate(-40866.9802 49737.9328) scale(63.4503 -63.4503)" gradientUnits="userSpaceOnUse"><stop offset="0" stop-color="#0057a7"/><stop offset=".1386" stop-color="#0057a7"/><stop offset=".3658" stop-color="#0a4992"/><stop offset=".775" stop-color="#1a3571"/><stop offset="1" stop-color="#212e65"/></linearGradient><clipPath id="d"><path class="f" d="M0,3.6263v169.2623h56.5876v-55.3621h79.0676v-44.0101H56.5876v-21.5174h85.1315V3.6263H0ZM247.8303,51.0116h24.668c13.0654,0,21.5298,5.3265,21.5298,16.2161v.4754c0,10.4019-8.2268,16.4534-21.7674,16.4534h-24.4305v-33.1449ZM191.2552,3.6263v169.2623h56.5751v-48.3483h12.1027l31.9196,48.3483h64.5645l-39.4213-57.5377c20.5546-9.9143,33.37-27.0934,33.37-51.7488v-.4876c0-17.4042-5.3137-29.994-15.4659-40.1342-11.8527-11.8526-30.9569-19.354-60.9511-19.354h-82.6934ZM737.202,3.6263v74.729L676.9886,3.6263h-52.9618v169.2623h56.1125v-78.105l62.8765,78.105h50.2988V3.6263h-56.1126ZM1168.2982,3.6263v59.7255h-51.749V3.6263h-56.5751v169.2623h56.5751v-60.6886h51.749v60.6886h56.5876V3.6263h-56.5876ZM1280.9483,172.8886h56.5876V3.6133h-56.5876v169.2753ZM1590.4299,3.6263v169.2623h145.5701v-46.423h-89.9577v-18.3787h82.706v-40.8592h-82.706v-17.1791h88.7573V3.6263h-144.3697ZM480.9199,68.9035l15.4784,41.1217h-30.9445l15.466-41.1217ZM453.3512,2.413l-71.3409,170.4757h60.4635l8.7019-22.73h59.2507l8.9395,22.73h61.4262L509.4512,2.413h-56.1ZM1388.7975,57.5507v.4747c0,35.796,33.3574,46.6733,71.3284,54.425,18.1414,3.6133,23.4551,6.2766,23.4551,11.1147v.4754c0,4.6138-4.3509,7.264-14.5031,7.264-19.8296,0-40.8718-5.8012-59.2509-19.8294l-30.2191,36.0333c21.5172,18.8542,52.4741,28.5311,86.8068,28.5311,45.4602,0,74.7166-21.7547,74.7166-57.3126v-.4754c0-34.095-29.019-46.6726-72.2911-54.6493-17.8915-3.3882-22.4925-6.2888-22.4925-10.8903v-.4747c0-4.1139,3.8634-7.0267,12.3278-7.0267,15.7159,0,34.8201,5.0884,50.7737,16.6907l27.5813-38.2081c-19.5919-15.4782-43.7724-23.2054-76.417-23.2054-46.6729,0-71.8161,24.9056-71.8161,57.0631M845.0261,88.2575v.4876c0,52.4745,40.8717,87.782,87.7696,87.782,42.0844,0,65.7897-20.5544,80.0554-45.7103l-46.6729-26.3555c-7.014,12.5776-15.9661,21.2793-31.9196,21.2793-18.6166,0-31.6695-15.4659-31.6695-37.4832v-.4754c0-20.317,12.5653-36.9956,31.6695-36.9956,15.4784,0,24.418,8.4522,30.7069,20.5422l46.6729-27.3186c-14.2782-25.8687-39.4213-44.0101-76.6547-44.0101-50.5363,0-89.9576,37.7335-89.9576,88.2575"/></clipPath><linearGradient id="e" x1="650.0094" y1="781.544" x2="662.5121" y2="781.544" gradientTransform="translate(-90253.2091 108604.942) scale(138.8491 -138.8491)" xlink:href="#c"/></defs><g class="m"><rect class="i" y="213.7104" width="793.3146" height="235.9902"/></g><polygon class="k" points="101.699 343.3216 164.338 343.3216 164.338 311.2023 101.699 311.2023 101.699 290.3594 172.8774 290.3594 172.8774 258.2402 66.5411 258.2402 66.5411 397.2337 173.8401 397.2337 173.8401 365.1137 101.699 365.1137 101.699 343.3216"/><polygon class="k" points="336.7851 258.2394 296.101 258.2394 269.4951 298.7735 243.4393 258.2394 201.805 258.2394 248.3029 326.5919 199.8796 397.233 240.5637 397.233 268.895 354.1982 297.0513 397.233 338.6731 397.233 290.2622 326.2172 336.7851 258.2394"/><path class="k" d="M427.9706,258.2409h-57.3504v138.9936h35.3454v-39.8595h19.1542c34.4952,0,56.7752-19.5287,56.7752-50.1363,0-29.7689-21.1672-48.9978-53.9245-48.9978M405.9656,290.7479h19.5293c7.7143,0,20.6671,2.213,20.6671,17.054v.3877c0,10.3646-7.8892,17.0532-20.0919,17.0532h-20.1045v-34.4949Z"/><path class="k" d="M584.3779,255.9546c-41.4217,0-73.854,31.5317-73.854,72.1536,0,40.7089,31.5821,71.4034,73.4789,71.4034,41.4218,0,73.8664-31.5317,73.8664-72.1536,0-40.7089-31.5946-71.4034-73.4914-71.4034M584.0028,289.037c21.1922,0,37.1833,16.6411,37.1833,38.6958v.3754c0,21.8547-15.8285,38.3333-36.8082,38.3333-21.1922,0-37.1708-16.6411-37.1708-39.0834,0-21.8425,15.816-38.3211,36.7957-38.3211"/><g class="l"><rect class="h" width="1736" height="176.5271"/></g><path class="j" d="M897.7018,242.9459h28.2106c16.471,0,26.4341,9.951,26.4341,24.3279v.2015c0,16.2878-12.4295,24.737-27.9176,24.737h-11.5382v21.1107h-15.1889v-70.377ZM924.9235,278.4336c7.5945,0,12.0327-4.6214,12.0327-10.653v-.2015c0-6.9412-4.7313-10.6591-12.3257-10.6591h-11.7397v21.5136h12.0327Z"/><path class="j" d="M960.5027,278.3359v-.2015c0-20.0057,15.4881-36.3973,36.7941-36.3973s36.5926,16.1901,36.5926,36.1958v.2015c0,20.0057-15.4881,36.3973-36.7941,36.3973s-36.5926-16.1901-36.5926-36.1958ZM1018.0045,278.3359v-.2015c0-12.0632-8.675-22.118-20.9092-22.118s-20.7139,9.8533-20.7139,21.9165v.2015c0,12.0632,8.6811,22.118,20.9153,22.118s20.7077-9.8533,20.7077-21.9165Z"/><path class="j" d="M1038.1873,242.9459h16.2695l14.3037,47.6547,15.4881-47.8561h13.0156l15.4881,47.8561,14.2976-47.6547h15.8849l-23.577,70.8776h-13.2171l-15.5796-46.043-15.5858,46.043h-13.2171l-23.5709-70.8776Z"/><path class="j" d="M1154.125,242.9459h52.0807v13.7726h-36.9895v14.2793h32.5512v13.7726h-32.5512v14.7799h37.4778v13.7726h-52.5691v-70.377Z"/><path class="j" d="M1220.1798,242.9459h31.5622c8.7788,0,15.5858,2.5152,20.1217,7.1366,3.8461,3.9193,5.9156,9.4504,5.9156,16.0864v.2015c0,11.3612-6.0133,18.4978-14.7921,21.8188l16.8678,25.1338h-17.753l-14.7982-22.5209h-11.935v22.5209h-15.1889v-70.377ZM1250.7591,277.1271c7.393,0,11.6359-4.017,11.6359-9.951v-.2015c0-6.636-4.5359-10.0547-11.935-10.0547h-15.0913v20.2071h15.3904Z"/><path class="j" d="M1291.4603,242.9459h52.0807v13.7726h-36.9895v14.2793h32.5512v13.7726h-32.5512v14.7799h37.4778v13.7726h-52.5691v-70.377Z"/><path class="j" d="M1357.5151,242.9459h26.9286c21.6967,0,36.6903,15.1828,36.6903,34.9871v.2015c0,19.8042-14.9936,35.1885-36.6903,35.1885h-26.9286v-70.377ZM1384.4437,299.3489c12.4234,0,20.8115-8.5468,20.8115-21.013v-.2015c0-12.4662-8.3881-21.2145-20.8115-21.2145h-11.7397v42.4289h11.7397Z"/><path class="j" d="M1464.1856,242.9459h32.0567c7.8875,0,14.1023,2.21,18.0521,6.2331,3.1501,3.2173,4.7313,7.1366,4.7313,11.9656v.2015c0,7.9424-4.1452,12.3624-9.0718,15.1767,7.9852,3.1196,12.9179,7.8448,12.9179,17.2951v.2015c0,12.8691-10.2562,19.3036-25.8419,19.3036h-32.8442v-70.377ZM1492.9885,271.4007c6.7032,0,10.946-2.2161,10.946-7.4418v-.2015c0-4.6275-3.553-7.2404-9.9632-7.2404h-14.9875v14.8837h14.0046ZM1497.0299,299.7518c6.7093,0,10.7507-2.4175,10.7507-7.6433v-.2015c0-4.7252-3.4493-7.6372-11.2452-7.6372h-17.5515v15.482h18.046Z"/><path class="j" d="M1551.9372,285.5763l-26.5318-42.6304h17.753l16.471,28.2534,16.7701-28.2534h17.2585l-26.5318,42.3251v28.0519h-15.1889v-27.7467Z"/><path class="g" d="M912.88,278.4526v-21.5044h11.7277c7.6017,0,12.3278,3.7255,12.3278,10.6522v.1999c0,6.0263-4.4385,10.6522-12.0277,10.6522h-12.0278ZM897.7016,313.3229h15.1783v-21.0924h11.5401c15.4784,0,27.8937-8.4514,27.8937-24.7301v-.2007c0-14.3655-9.9522-24.3173-26.4184-24.3173h-28.1938v70.3404Z"/><path class="g" d="M997.2775,300.2532c-12.2277,0-20.9046-10.0395-20.9046-22.1042v-.2007c0-12.0526,8.4769-21.9043,20.7046-21.9043s20.9046,10.0517,20.9046,22.105v.1999c0,12.0648-8.4768,21.9043-20.7046,21.9043ZM997.0775,314.5317c21.2923,0,36.7707-16.3786,36.7707-36.3828v-.2007c0-19.9919-15.2784-36.1699-36.5707-36.1699s-36.7707,16.3786-36.7707,36.3706v.1999c0,20.0042,15.2784,36.1828,36.5707,36.1828Z"/><polygon class="g" points="1061.6482 313.8243 1074.8636 313.8243 1090.4422 267.8012 1106.0081 313.8243 1119.2236 313.8243 1142.7913 242.9833 1126.9127 242.9833 1112.6221 290.6189 1097.1436 242.7834 1084.1282 242.7834 1068.6497 290.6189 1054.3591 242.9833 1038.0804 242.9833 1061.6482 313.8243"/><polygon class="g" points="1154.0275 313.3229 1206.5768 313.3229 1206.5768 299.5572 1169.1058 299.5572 1169.1058 284.7918 1201.6507 284.7918 1201.6507 271.0261 1169.1058 271.0261 1169.1058 256.7475 1206.0766 256.7475 1206.0766 242.9825 1154.0275 242.9825 1154.0275 313.3229"/><path class="g" d="M1235.2607,277.1523v-20.2041h15.0783c7.4016,0,11.9402,3.4256,11.9402,10.0517v.1999c0,5.9263-4.2385,9.9525-11.6401,9.9525h-15.3784ZM1220.0823,313.3229h15.1784v-22.5049h11.9276l14.7908,22.5049h17.7539l-16.8663-25.1178c8.7769-3.3134,14.7908-10.4523,14.7908-21.8051v-.2129c0-6.6261-2.0755-12.1525-5.9137-16.0657-4.5386-4.626-11.34-7.1389-20.1171-7.1389h-31.5445v70.3404Z"/><polygon class="g" points="1291.3632 313.3229 1343.9125 313.3229 1343.9125 299.5572 1306.4415 299.5572 1306.4415 284.7918 1338.9864 284.7918 1338.9864 271.0261 1306.4415 271.0261 1306.4415 256.7475 1343.4123 256.7475 1343.4123 242.9825 1291.3632 242.9825 1291.3632 313.3229"/><path class="g" d="M1372.5965,299.3573v-42.4091h11.7275c12.4278,0,20.8047,8.7391,20.8047,21.2045v.1999c0,12.4654-8.3768,21.0046-20.8047,21.0046h-11.7275ZM1357.418,313.3229h26.9059c21.6923,0,36.6833-15.366,36.6833-35.1702v-.1999c0-19.792-14.9909-34.9703-36.6833-34.9703h-26.9059v70.3404Z"/><path class="g" d="M1478.8788,299.7571v-15.4782h17.5414c7.7893,0,11.24,2.9258,11.24,7.6395v.1999c0,5.2258-4.0384,7.6387-10.7524,7.6387h-18.029ZM1478.8788,271.4137v-14.8661h14.9783c6.4139,0,9.9647,2.6137,9.9647,7.2396v.1999c0,5.2258-4.2509,7.4266-10.9523,7.4266h-13.9907ZM1464.088,313.3229h32.8198c15.5909,0,25.8307-6.4261,25.8307-19.2922v-.1999c0-9.4397-4.9261-14.1656-12.9029-17.2783,4.9261-2.8258,9.0646-7.2396,9.0646-15.179v-.1999c0-4.8259-1.5754-8.7391-4.7385-11.9526-3.9384-4.0254-10.1524-6.2384-18.029-6.2384h-32.0447v70.3404Z"/><polygon class="g" points="1551.73 313.3229 1566.9084 313.3229 1566.9084 285.2916 1593.4269 242.9825 1576.1854 242.9825 1559.4193 271.2138 1542.9531 242.9825 1525.2115 242.9825 1551.73 285.5915 1551.73 313.3229"/><path class="j" d="M785.5125,353.1634h16.3733l18.1498,29.7613,18.1498-29.7613h16.3672v70.377h-15.0852v-45.9453l-19.4318,30.0604h-.3968l-19.2304-29.7613v45.6462h-14.8959v-70.377Z"/><path class="j" d="M871.0845,353.1634h52.5691v14.0717h-37.3802v14.9814h32.9419v14.0778h-32.9419v27.2461h-15.1889v-70.377Z"/><path class="j" d="M929.844,353.1634h16.764l18.0521,49.5655,18.046-49.5655h16.3733l-27.9115,70.8776h-13.4124l-27.9115-70.8776Z"/><path class="j" d="M1039.2739,353.1634h52.0807v13.7726h-36.9895v14.2793h32.5512v13.7726h-32.5512v14.7799h37.4778v13.7726h-52.5691v-70.377Z"/><path class="j" d="M1124.1684,387.7475l-23.0825-34.5841h17.7591l14.3953,22.82,14.7005-22.82h17.2585l-23.0825,34.3827,24.0715,35.9944h-17.7591l-15.482-24.1326-15.5858,24.1326h-17.2585l24.0654-35.7929Z"/><path class="j" d="M1177.4945,353.1634h28.2106c16.471,0,26.4341,9.951,26.4341,24.3279v.2015c0,16.2878-12.4295,24.737-27.9176,24.737h-11.5382v21.1107h-15.1889v-70.377ZM1204.7161,388.651c7.5945,0,12.0327-4.6214,12.0327-10.653v-.2015c0-6.9412-4.7313-10.6591-12.3257-10.6591h-11.7397v21.5136h12.0327Z"/><path class="j" d="M1240.2954,388.5534v-.2015c0-20.0057,15.4881-36.3973,36.7941-36.3973s36.5926,16.1901,36.5926,36.1958v.2015c0,20.0057-15.4881,36.3973-36.7941,36.3973s-36.5926-16.1901-36.5926-36.1958ZM1297.7972,388.5534v-.2015c0-12.0632-8.675-22.118-20.9092-22.118s-20.7139,9.8533-20.7139,21.9165v.2015c0,12.0632,8.6811,22.118,20.9153,22.118s20.7077-9.8533,20.7077-21.9165Z"/><path class="j" d="M1322.0275,413.2842l8.9742-10.9583c6.2148,5.2258,12.7226,8.5468,20.6101,8.5468,6.2148,0,9.9632-2.5152,9.9632-6.636v-.2015c0-3.9193-2.3626-5.9339-13.9069-8.9498-13.9069-3.6202-22.8811-7.5395-22.8811-21.5136v-.2015c0-12.7653,10.0608-21.2145,24.1631-21.2145,10.0608,0,18.6443,3.2173,25.6466,8.9498l-7.8936,11.6603c-6.111-4.3223-12.1304-6.9351-17.9483-6.9351s-8.8765,2.7167-8.8765,6.1354v.1954c0,4.6275,2.9609,6.1354,14.8959,9.255,14.0046,3.7179,21.8921,8.846,21.8921,21.1107v.2015c0,13.9741-10.4516,21.8188-25.3475,21.8188-10.4577,0-21.0069-3.724-29.2912-11.2635Z"/><path class="j" d="M1390.5425,353.1634h15.1889v70.377h-15.1889v-70.377Z"/><path class="j" d="M1439.058,367.4366h-21.013v-14.2732h57.2088v14.2732h-21.0069v56.1038h-15.1889v-56.1038Z"/><path class="j" d="M1487.5551,353.1634h15.1889v70.377h-15.1889v-70.377Z"/><path class="j" d="M1516.9318,388.5534v-.2015c0-20.0057,15.4881-36.3973,36.7941-36.3973s36.5926,16.1901,36.5926,36.1958v.2015c0,20.0057-15.4881,36.3973-36.7941,36.3973s-36.5926-16.1901-36.5926-36.1958ZM1574.4336,388.5534v-.2015c0-12.0632-8.675-22.118-20.9092-22.118s-20.7139,9.8533-20.7139,21.9165v.2015c0,12.0632,8.6811,22.118,20.9153,22.118s20.7077-9.8533,20.7077-21.9165Z"/><path class="j" d="M1603.7859,353.1634h14.0046l32.3559,43.3324v-43.3324h14.9875v70.377h-12.9179l-33.4364-44.7427v44.7427h-14.9936v-70.377Z"/><path class="j" d="M1676.9406,413.2842l8.9742-10.9583c6.2148,5.2258,12.7226,8.5468,20.6101,8.5468,6.2148,0,9.9632-2.5152,9.9632-6.636v-.2015c0-3.9193-2.3626-5.9339-13.9069-8.9498-13.9069-3.6202-22.8811-7.5395-22.8811-21.5136v-.2015c0-12.7653,10.0608-21.2145,24.1631-21.2145,10.0608,0,18.6443,3.2173,25.6466,8.9498l-7.8936,11.6603c-6.111-4.3223-12.1304-6.9351-17.9483-6.9351s-8.8765,2.7167-8.8765,6.1354v.1954c0,4.6275,2.9609,6.1354,14.8959,9.255,14.0046,3.7179,21.8921,8.846,21.8921,21.1107v.2015c0,13.9741-10.4516,21.8188-25.3475,21.8188-10.4577,0-21.0069-3.724-29.2912-11.2635Z"/><polygon class="g" points="785.5128 423.5412 800.3912 423.5412 800.3912 377.9187 819.6204 407.6624 820.0206 407.6624 839.4374 377.6188 839.4374 423.5412 854.5282 423.5412 854.5282 353.2008 838.1496 353.2008 820.0206 382.9445 801.879 353.2008 785.5128 353.2008 785.5128 423.5412"/><polygon class="g" points="871.0844 423.5412 886.2628 423.5412 886.2628 396.3104 919.1952 396.3104 919.1952 382.2447 886.2628 382.2447 886.2628 367.2786 923.6337 367.2786 923.6337 353.2008 871.0844 353.2008 871.0844 423.5412"/><polygon class="g" points="957.7438 424.041 971.1467 424.041 999.053 353.2 982.6869 353.2 964.6453 402.7365 946.6038 353.2 929.85 353.2 957.7438 424.041"/><polygon class="g" points="1039.2744 423.5412 1091.8237 423.5412 1091.8237 409.7754 1054.3528 409.7754 1054.3528 395.01 1086.8975 395.01 1086.8975 381.2443 1054.3528 381.2443 1054.3528 366.9657 1091.3235 366.9657 1091.3235 353.2008 1039.2744 353.2008 1039.2744 423.5412"/><polygon class="g" points="1100.103 423.5412 1117.3568 423.5412 1132.9228 399.4231 1148.4139 423.5412 1166.1552 423.5412 1142.0999 387.5705 1165.1676 353.2008 1147.9137 353.2008 1133.2228 376.0178 1118.8322 353.2008 1101.0908 353.2008 1124.1584 387.7704 1100.103 423.5412"/><path class="g" d="M1192.6725,388.6709v-21.5044h11.7275c7.6017,0,12.3278,3.7255,12.3278,10.6522v.1999c0,6.0263-4.4384,10.6522-12.0278,10.6522h-12.0276ZM1177.4941,423.5412h15.1784v-21.0924h11.5399c15.4785,0,27.8938-8.4514,27.8938-24.7301v-.2007c0-14.3655-9.9521-24.3173-26.4183-24.3173h-28.1939v70.3404Z"/><path class="g" d="M1277.07,410.4699c-12.2279,0-20.9048-10.0395-20.9048-22.1042v-.2007c0-12.0526,8.477-21.9043,20.7047-21.9043s20.9046,10.0517,20.9046,22.105v.1999c0,12.0648-8.4768,21.9043-20.7045,21.9043ZM1276.8699,424.7484c21.2923,0,36.7706-16.3786,36.7706-36.3828v-.2007c0-19.9919-15.2784-36.1699-36.5705-36.1699s-36.7708,16.3786-36.7708,36.3706v.1999c0,20.0042,15.2784,36.1828,36.5707,36.1828Z"/><path class="g" d="M1351.209,424.5477c14.8784,0,25.3307-7.8394,25.3307-21.8051v-.1999c0-12.2655-7.8768-17.3913-21.8799-21.1046-11.9276-3.1135-14.8908-4.626-14.8908-9.2397v-.2121c0-3.4134,3.0631-6.1262,8.8769-6.1262s11.8276,2.6129,17.9415,6.939l7.8892-11.6527c-7.0015-5.7393-15.5783-8.952-25.6306-8.952-14.1032,0-24.1555,8.4392-24.1555,21.2045v.1999c0,13.9657,8.9644,17.8789,22.8675,21.5052,11.5401,3.0128,13.9033,5.0258,13.9033,8.9391v.1999c0,4.1261-3.7509,6.6391-9.9649,6.6391-7.8766,0-14.3907-3.3127-20.6045-8.5392l-8.9644,10.9522c8.2769,7.5395,18.8292,11.2528,29.2815,11.2528Z"/><rect class="g" x="1390.4454" y="353.2008" width="15.1784" height="70.3404"/><polygon class="g" points="1438.9487 423.5412 1454.1271 423.5412 1454.1271 367.4786 1475.1317 367.4786 1475.1317 353.2008 1417.9441 353.2008 1417.9441 367.4786 1438.9487 367.4786 1438.9487 423.5412"/><rect class="g" x="1487.4519" y="353.2008" width="15.1784" height="70.3404"/><path class="g" d="M1553.603,410.4699c-12.2279,0-20.9048-10.0395-20.9048-22.1042v-.2007c0-12.0526,8.477-21.9043,20.7047-21.9043s20.9046,10.0517,20.9046,22.105v.1999c0,12.0648-8.4768,21.9043-20.7045,21.9043ZM1553.4029,424.7484c21.2923,0,36.7706-16.3786,36.7706-36.3828v-.2007c0-19.9919-15.2784-36.1699-36.5705-36.1699s-36.7708,16.3786-36.7708,36.3706v.1999c0,20.0042,15.2784,36.1828,36.5707,36.1828Z"/><polygon class="g" points="1603.6878 423.5412 1618.6662 423.5412 1618.6662 378.8313 1652.0986 423.5412 1665.0016 423.5412 1665.0016 353.2008 1650.0231 353.2008 1650.0231 396.5103 1617.6909 353.2008 1603.6878 353.2008 1603.6878 423.5412"/><path class="g" d="M1706.122,424.5477c14.8784,0,25.3307-7.8394,25.3307-21.8051v-.1999c0-12.2655-7.8768-17.3913-21.8799-21.1046-11.9276-3.1135-14.8908-4.626-14.8908-9.2397v-.2121c0-3.4134,3.0631-6.1262,8.8769-6.1262s11.8276,2.6129,17.9415,6.939l7.8892-11.6527c-7.0015-5.7393-15.5783-8.952-25.6306-8.952-14.1032,0-24.1555,8.4392-24.1555,21.2045v.1999c0,13.9657,8.9644,17.8789,22.8675,21.5052,11.5401,3.0128,13.9033,5.0258,13.9033,8.9391v.1999c0,4.1261-3.7509,6.6391-9.9649,6.6391-7.8766,0-14.3907-3.3127-20.6045-8.5392l-8.9644,10.9522c8.2769,7.5395,18.8292,11.2528,29.2815,11.2528Z"/></svg>